<?xml version="1.0" encoding="utf-8"?>
<!-- Generator: Adobe Illustrator 17.0.0, SVG Export Plug-In . SVG Version: 6.00 Build 0)  -->
<!DOCTYPE svg PUBLIC "-//W3C//DTD SVG 1.1//EN" "http://www.w3.org/Graphics/SVG/1.1/DTD/svg11.dtd">
<svg version="1.1" xmlns="http://www.w3.org/2000/svg" xmlns:xlink="http://www.w3.org/1999/xlink" x="0px" y="0px" width="512px"
	 height="512px" viewBox="0 0 512 512" enable-background="new 0 0 512 512" xml:space="preserve">
<g id="icon" display="none">
	<g display="inline">
		<path fill="#FFFFFF" d="M6.654,105.556c0.486-0.057,0.973-0.165,1.458-0.164c52.163,0.063,104.329-0.182,156.487,0.365
			c20.326,0.213,39.876,4.846,57.065,16.609c18.133,12.409,28.207,29.948,30.215,51.5c1.018,10.919,0.569,22.296-1.333,33.093
			c-3.153,17.892-14.025,30.949-29.797,39.891c-1.672,0.948-3.35,1.885-5.682,3.196c4.675,2.317,8.79,4.077,12.633,6.308
			c24.316,14.115,34.422,36.476,34.969,63.397c0.787,38.783-15.13,68.611-50.084,86.955c-12.623,6.624-26.633,8.777-40.671,9.996
			c-9.433,0.818-18.932,1.164-28.403,1.189c-43.661,0.12-87.321,0.056-130.982,0.045c-1.958-0.001-3.916-0.12-5.874-0.185
			C6.654,313.687,6.654,209.621,6.654,105.556z M79.018,363.504c25.156,0,49.693,0.294,74.218-0.141
			c10.146-0.18,20.299-2.056,28.694-8.541c14.079-10.879,16.348-26.153,14.581-42.4c-1.75-16.09-11.566-25.68-26.939-29.137
			c-8.066-1.815-16.483-2.66-24.763-2.817c-20.444-0.388-40.902-0.133-61.354-0.115c-1.412,0.001-2.824,0.175-4.436,0.281
			C79.018,308.376,79.018,335.797,79.018,363.504z M78.988,228.214c1.345,0.125,2.146,0.264,2.948,0.264
			c21.24,0.001,42.489,0.348,63.715-0.203c8.201-0.213,16.516-1.837,24.473-3.964c7.917-2.117,14.922-6.689,17.464-15.043
			c1.772-5.824,2.847-12.126,2.767-18.196c-0.212-16.051-7.514-24.969-23.023-28.324c-7.619-1.648-15.489-2.75-23.269-2.913
			c-20.742-0.432-41.497-0.225-62.246-0.25c-0.907-0.001-1.813,0.213-2.829,0.34C78.988,182.796,78.988,205.291,78.988,228.214z"/>
		<path fill="#FFFFFF" d="M509.309,312.705c-54.118,0-108.237,0-162.288,0c-3.02,15.869,7.36,38.655,22.576,47.123
			c20.719,11.529,42.078,12.731,62.627-0.518c4.854-3.131,8.011-8.844,12.135-13.193c1.3-1.372,3.193-3.075,4.834-3.095
			c18.153-0.214,36.312-0.131,54.467-0.108c0.626,0,1.252,0.199,2.167,0.354c-0.483,7.837-3.459,14.726-7.302,21.118
			c-18.209,30.278-45.267,46.595-80.202,50.488c-29.832,3.326-57.865-1.384-83.838-17.125
			c-23.614-14.313-38.011-34.938-43.392-61.842c-6.405-32.023-6.163-63.837,6.224-94.501c12.849-31.806,36.831-51.513,69.999-59.354
			c30.707-7.26,60.812-4.903,89.151,9.866c22.252,11.596,36.681,30.424,44.709,53.69c3.891,11.273,4.896,23.542,7.217,35.359
			c0.278,1.422,0.609,2.832,0.916,4.248C509.309,294.379,509.309,303.542,509.309,312.705z M448.14,273.976
			c-1.394-31.748-25.006-50.489-59.204-46.763c-26.673,2.907-40.099,28.311-40.411,46.763
			C381.646,273.976,414.764,273.976,448.14,273.976z"/>
		<path fill="#FFFFFF" d="M334.756,149.286c0-10.389,0-20.324,0-30.629c41.836,0,83.545,0,125.508,0c0,10.213,0,20.264,0,30.629
			C418.437,149.286,376.852,149.286,334.756,149.286z"/>
	</g>
</g>
<g id="Layer_2">
	<g>
		<path id="Behance" fill="#FFFFFF" d="M457.555,139.486H326.681v-32.518h130.874V139.486L457.555,139.486z M257.509,272.764
			c8.43,13.094,12.661,29.008,12.661,47.615c0,19.312-4.76,36.589-14.44,51.862c-6.154,10.113-13.815,18.655-22.998,25.515
			c-10.353,7.949-22.598,13.43-36.669,16.363c-14.136,2.933-29.409,4.359-45.868,4.359H3.823V93.521h156.933
			c39.554,0.625,67.601,12.084,84.156,34.618c9.937,13.799,14.857,30.355,14.857,49.603c0,19.889-5,35.772-15.017,47.84
			c-5.577,6.779-13.815,12.95-24.745,18.495C236.562,250.15,249.111,259.654,257.509,272.764z M78.763,221.639h68.771
			c14.136,0,25.563-2.709,34.345-8.061c8.799-5.369,13.19-14.905,13.19-28.592c0-15.097-5.802-25.13-17.453-29.954
			c-10.017-3.366-22.822-5.096-38.352-5.096H78.763V221.639z M201.688,315.732c0-16.876-6.908-28.528-20.674-34.81
			c-7.693-3.542-18.559-5.385-32.486-5.513H78.763v86.592h68.658c14.12,0,25.034-1.827,32.919-5.706
			C194.556,349.243,201.688,335.765,201.688,315.732z M506.099,262.875c1.603,10.642,2.324,26.059,2.003,46.221H338.636
			c0.946,23.399,9.007,39.746,24.345,49.106c9.215,5.866,20.418,8.735,33.544,8.735c13.831,0,25.098-3.494,33.768-10.674
			c4.728-3.814,8.895-9.199,12.485-15.963h62.136c-1.651,13.799-9.103,27.79-22.566,42.07
			c-20.819,22.598-50.019,33.993-87.522,33.993c-31.012,0-58.305-9.616-82.009-28.672c-23.639-19.104-35.499-50.18-35.499-93.227
			c0-40.371,10.674-71.303,32.053-92.795c21.444-21.556,49.122-32.278,83.259-32.278c20.226,0,38.464,3.606,54.747,10.866
			c16.219,7.292,29.617,18.735,40.163,34.473C497.076,228.594,503.231,244.621,506.099,262.875z M444.926,268.95
			c-1.106-16.171-6.523-28.415-16.267-36.781c-9.664-8.414-21.7-12.613-36.06-12.613c-15.674,0-27.71,4.487-36.333,13.334
			c-8.638,8.863-14.007,20.851-16.219,36.06H444.926z"/>
	</g>
</g>
</svg>
