
<svg version="1.1" id="icon" xmlns="http://www.w3.org/2000/svg" xmlns:xlink="http://www.w3.org/1999/xlink" x="0px" y="0px"
	 width="600px" height="600px" viewBox="0 0 600 600" style="enable-background:new 0 0 600 600;" xml:space="preserve">
<style type="text/css">
	.st0,path{fill:#ffffff;
	transition:.35s;}
	
	#connect1,#world1,#through1{
	display:none;
	}

	#connect:hover path,#connect:hover  #connect1{
	display:block;
	fill:#00d8a5;
	}
	#icon:hover  #design {
	display:none;
	}
	#world:hover path,#world:hover  #world1{
	display:block;
	fill:#00d8a5;
	}
	#through:hover path,#through:hover  #through1{
	display:block;
	fill:#00d8a5;
	}
	
</style>
<g id="connect">
	<g>
		<g>
			<path class="st0" d="M331.031,345.327c-2.347,1.308-4.172,2.308-5.976,3.339c-18.943,10.848-37.822,21.815-56.894,32.433
				c-2.858,1.592-7.065,2.956-9.882,2.054c-13.098-4.226-25.925-9.297-38.849-14.057c0.069-0.698,0.138-1.407,0.211-2.103
				c30.767-17.862,61.539-35.722,92.878-53.915c-8.292-14.346-16.325-28.243-24.614-42.577c-3.026,1.673-5.588,3.027-8.094,4.473
				c-15.627,9.041-31.232,18.117-46.865,27.146c-16.358,9.445-32.666,18.989-49.188,28.141c-2.494,1.375-7.667,2.277-8.845,0.954
				c-7.759-8.731-14.761-18.137-22.27-27.649c39.03-22.568,77.284-44.686,115.813-66.962c-8.278-14.484-16.168-28.286-24.205-42.349
				c-36.366,21.02-72.295,41.789-108.364,62.639c-0.053-0.178-0.102-0.359-0.152-0.539c-4.555,3.236-9.795,5.543-15.43,6.626
				c1.41,5.648,3.033,11.278,4.935,16.887c2.407-1.35,4.415-2.442,6.396-3.586c32.705-18.921,65.399-37.852,98.113-56.754
				c1.986-1.148,4.036-2.548,6.205-2.902c1.68-0.266,4.368,0.355,5.262,1.566c2.91,3.955,5.198,8.362,7.857,12.821
				c-39.094,22.594-77.399,44.733-116.029,67.065c8.847,18.67,20.586,34.601,34.064,49.449c4.429,4.874,7.988,5.145,13.51,1.881
				c29.101-17.182,58.397-34.032,87.638-50.973c4.852-2.805,9.766-5.5,14.927-8.402c3.477,6.146,6.626,11.708,9.94,17.566
				c-34.632,20.031-68.658,39.71-103.265,59.722c16.923,12.714,34.68,21.394,53.431,28.558c12.864,4.913,23.656,4.053,35.342-3.848
				c15.052-10.169,31.361-18.491,47.512-27.839c8.353,14.673,16.441,28.874,24.525,43.086c0.419,0,0.841,0,1.261-0.001
				c3.402-2.361,6.803-4.72,10.732-7.449C352.127,381.674,341.651,363.622,331.031,345.327z"/>
		</g>
	</g>
	<g id="connect1">
	<path class="st0" d="M127.217,517.867h-11.153c-5.59,0-9.729-0.922-12.419-2.769c-2.689-1.846-4.034-5.537-4.034-11.074v-22.623
		c0-5.537,1.345-9.228,4.034-11.074c2.689-1.846,6.829-2.769,12.419-2.769h11.153c1.634,0,2.992,0.237,4.074,0.712
		c1.08,0.475,1.845,1.16,2.294,2.057c0.447,0.897,0.751,1.768,0.91,2.61c0.158,0.844,0.237,1.872,0.237,3.085
		c0,1.582-0.554,2.373-1.661,2.373s-1.661-0.738-1.661-2.215c0-1.898-0.344-3.256-1.028-4.073c-0.686-0.817-1.926-1.227-3.718-1.227
		h-10.6c-2.531,0-4.497,0.093-5.893,0.277c-1.398,0.185-2.703,0.633-3.916,1.344c-1.214,0.713-2.07,1.78-2.571,3.204
		c-0.502,1.424-0.751,3.322-0.751,5.695v22.623c0,2.373,0.25,4.271,0.751,5.695c0.5,1.424,1.357,2.491,2.571,3.204
		c1.212,0.711,2.518,1.16,3.916,1.344c1.396,0.186,3.362,0.277,5.893,0.277h10.6c1.792,0,3.032-0.396,3.718-1.187
		c0.685-0.791,1.028-2.162,1.028-4.113c0-1.476,0.554-2.215,1.661-2.215s1.661,0.818,1.661,2.452c0,1.16-0.079,2.163-0.237,3.006
		c-0.158,0.844-0.462,1.714-0.91,2.61c-0.449,0.897-1.214,1.582-2.294,2.057C130.209,517.63,128.851,517.867,127.217,517.867z"/>
	<path class="st0" d="M174.48,513.596c-3.296,3.322-7.502,4.983-12.617,4.983c-5.116,0-9.322-1.661-12.617-4.983
		c-3.296-3.322-4.944-7.883-4.944-13.685v-14.396c0-5.801,1.647-10.362,4.944-13.685c3.295-3.322,7.501-4.983,12.617-4.983
		c5.114,0,9.32,1.661,12.617,4.983c3.295,3.322,4.944,7.884,4.944,13.685v14.396C179.424,505.713,177.775,510.273,174.48,513.596z
		 M172.305,474.242c-2.531-2.715-6.012-4.073-10.441-4.073s-7.91,1.358-10.441,4.073c-2.531,2.717-3.797,6.475-3.797,11.272v14.396
		c0,4.799,1.266,8.557,3.797,11.272s6.012,4.073,10.441,4.073s7.91-1.357,10.441-4.073s3.797-6.474,3.797-11.272v-14.396
		C176.102,480.717,174.836,476.959,172.305,474.242z"/>
	<path class="st0" d="M224.749,518.421c-0.633,0-1.056-0.186-1.266-0.554l-28.951-44.06v42.24c0,1.582-0.554,2.373-1.661,2.373
		s-1.661-0.791-1.661-2.373v-46.591c0-1.634,0.5-2.452,1.503-2.452c0.791,0,1.476,0.448,2.057,1.345l28.239,42.873v-41.766
		c0-1.634,0.526-2.452,1.582-2.452c1.159,0,1.74,0.818,1.74,2.452v46.591C226.331,517.63,225.803,518.421,224.749,518.421z"/>
	<path class="st0" d="M273.159,518.421c-0.633,0-1.056-0.186-1.266-0.554l-28.951-44.06v42.24c0,1.582-0.554,2.373-1.661,2.373
		s-1.661-0.791-1.661-2.373v-46.591c0-1.634,0.5-2.452,1.503-2.452c0.791,0,1.476,0.448,2.057,1.345l28.239,42.873v-41.766
		c0-1.634,0.526-2.452,1.582-2.452c1.159,0,1.74,0.818,1.74,2.452v46.591C274.741,517.63,274.213,518.421,273.159,518.421z"/>
	<path class="st0" d="M291.353,491.21v23.335h29.505c1.529,0,2.294,0.606,2.294,1.819c0,1.002-0.765,1.503-2.294,1.503h-31.324
		c-1.002,0-1.503-0.817-1.503-2.452v-45.404c0-1.634,0.5-2.452,1.503-2.452h31.324c1.529,0,2.294,0.606,2.294,1.819
		c0,1.002-0.765,1.503-2.294,1.503h-29.505v17.007h20.171c1.582,0,2.373,0.606,2.373,1.819c0,1.002-0.791,1.503-2.373,1.503H291.353
		z"/>
	<path class="st0" d="M359.854,517.867h-11.153c-5.59,0-9.729-0.922-12.419-2.769c-2.689-1.846-4.034-5.537-4.034-11.074v-22.623
		c0-5.537,1.345-9.228,4.034-11.074c2.689-1.846,6.829-2.769,12.419-2.769h11.153c1.634,0,2.992,0.237,4.074,0.712
		c1.08,0.475,1.845,1.16,2.294,2.057c0.447,0.897,0.751,1.768,0.91,2.61c0.158,0.844,0.237,1.872,0.237,3.085
		c0,1.582-0.554,2.373-1.661,2.373s-1.661-0.738-1.661-2.215c0-1.898-0.344-3.256-1.028-4.073c-0.686-0.817-1.926-1.227-3.718-1.227
		h-10.6c-2.531,0-4.497,0.093-5.893,0.277c-1.398,0.185-2.703,0.633-3.916,1.344c-1.214,0.713-2.07,1.78-2.571,3.204
		c-0.502,1.424-0.751,3.322-0.751,5.695v22.623c0,2.373,0.25,4.271,0.751,5.695c0.5,1.424,1.357,2.491,2.571,3.204
		c1.212,0.711,2.518,1.16,3.916,1.344c1.396,0.186,3.362,0.277,5.893,0.277h10.6c1.792,0,3.032-0.396,3.718-1.187
		c0.685-0.791,1.028-2.162,1.028-4.113c0-1.476,0.554-2.215,1.661-2.215s1.661,0.818,1.661,2.452c0,1.16-0.079,2.163-0.237,3.006
		c-0.158,0.844-0.462,1.714-0.91,2.61c-0.449,0.897-1.214,1.582-2.294,2.057C362.847,517.63,361.488,517.867,359.854,517.867z"/>
	<path class="st0" d="M403.835,467.559c1.476,0,2.215,0.581,2.215,1.74c0,1.056-0.739,1.582-2.215,1.582h-12.182v45.404
		c0,1.424-0.581,2.136-1.74,2.136c-1.056,0-1.582-0.712-1.582-2.136v-45.404H376.07c-1.477,0-2.215-0.554-2.215-1.661
		s0.738-1.661,2.215-1.661H403.835z"/>
	<path class="st0" d="M418.152,516.285c0,1.424-0.581,2.136-1.74,2.136c-1.056,0-1.582-0.712-1.582-2.136V469.22
		c0-1.476,0.554-2.215,1.661-2.215s1.661,0.739,1.661,2.215V516.285z"/>
	<path class="st0" d="M464.98,518.421c-0.633,0-1.056-0.186-1.266-0.554l-28.951-44.06v42.24c0,1.582-0.554,2.373-1.661,2.373
		s-1.661-0.791-1.661-2.373v-46.591c0-1.634,0.5-2.452,1.503-2.452c0.791,0,1.476,0.448,2.057,1.345l28.239,42.873v-41.766
		c0-1.634,0.526-2.452,1.582-2.452c1.159,0,1.74,0.818,1.74,2.452v46.591C466.563,517.63,466.035,518.421,464.98,518.421z"/>
	<path class="st0" d="M510.701,498.013h-10.521c-1.582,0-2.373-0.526-2.373-1.582c0-1.159,0.791-1.74,2.373-1.74h13.843v14.792
		c0,1.16-0.079,2.163-0.237,3.006c-0.158,0.844-0.462,1.714-0.91,2.61c-0.449,0.897-1.214,1.582-2.294,2.057
		c-1.082,0.475-2.44,0.712-4.074,0.712h-11.153c-2.743,0-5.011-0.158-6.803-0.475c-1.793-0.316-3.48-0.949-5.063-1.898
		s-2.743-2.373-3.48-4.271c-0.739-1.898-1.107-4.298-1.107-7.198v-22.623c0-2.899,0.368-5.3,1.107-7.198
		c0.738-1.898,1.898-3.322,3.48-4.271s3.269-1.582,5.063-1.898c1.792-0.316,4.06-0.475,6.803-0.475h11.153
		c1.634,0,2.992,0.237,4.074,0.712c1.08,0.475,1.845,1.16,2.294,2.057c0.447,0.897,0.751,1.768,0.91,2.61
		c0.158,0.844,0.237,1.847,0.237,3.006c0,1.635-0.554,2.452-1.661,2.452s-1.661-0.764-1.661-2.294c0-1.898-0.344-3.243-1.028-4.034
		c-0.686-0.791-1.926-1.187-3.718-1.187h-10.6c-2.531,0-4.497,0.093-5.893,0.277c-1.398,0.185-2.703,0.633-3.916,1.344
		c-1.214,0.713-2.07,1.78-2.571,3.204c-0.502,1.424-0.751,3.322-0.751,5.695v22.623c0,2.373,0.25,4.271,0.751,5.695
		c0.5,1.424,1.357,2.491,2.571,3.204c1.212,0.711,2.518,1.16,3.916,1.344c1.396,0.186,3.362,0.277,5.893,0.277h10.6
		c1.792,0,3.032-0.396,3.718-1.187c0.685-0.791,1.028-2.136,1.028-4.034V498.013z"/>
</g>
</g>
<g id="world">
	<g>
		<g>
			<path class="st0" d="M490.627,179.913C467.981,63.266,358.045,7.794,258.338,29.697c-64.24,14.109-141.58,83.14-144.351,174.9
				c-0.772,25.617,2.894,50.608,11.254,75.271c2.407-1.35,4.415-2.442,6.396-3.586c4.459-2.58,8.919-5.158,13.378-7.739
				c-2.607-4.129-4.822-8.517-6.59-13.116c-0.846,0.489-1.691,0.977-2.537,1.466C115.13,187.395,148.196,83.85,248.726,50.311
				c92.46-30.85,191.021,18.476,220.629,110.278c14.986,46.465,11.666,91.549-10.667,134.932
				c-15.01,29.156-36.325,52.542-65.685,68.762c-0.474-0.825-0.947-1.647-1.421-2.471c-4.035,2.307-8.294,4.245-12.733,5.775
				c2.106,3.666,4.211,7.333,6.317,10.999c3.886,6.762,4.706,6.917,11.851,2.934C468.015,341.89,506.315,260.736,490.627,179.913z"
				/>
		</g>
	</g>
	<g id="world1">
	<path class="st0" d="M137.531,468.191c1.476,0,2.215,0.581,2.215,1.74c0,1.056-0.739,1.582-2.215,1.582H125.35v45.404
		c0,1.424-0.581,2.136-1.74,2.136c-1.056,0-1.582-0.712-1.582-2.136v-45.404h-12.261c-1.477,0-2.215-0.554-2.215-1.661
		s0.738-1.661,2.215-1.661H137.531z"/>
	<path class="st0" d="M151.849,516.681c0,1.582-0.554,2.373-1.661,2.373s-1.661-0.791-1.661-2.373V470.09
		c0-1.634,0.5-2.452,1.503-2.452c1.212,0,1.819,0.818,1.819,2.452v19.617h28.477V470.09c0-1.634,0.526-2.452,1.582-2.452
		c1.159,0,1.74,0.818,1.74,2.452v46.591c0,1.582-0.528,2.373-1.582,2.373c-1.161,0-1.74-0.791-1.74-2.373v-23.651h-28.477V516.681z"
		/>
	<path class="st0" d="M200.259,491.843v23.335h29.505c1.529,0,2.294,0.606,2.294,1.819c0,1.002-0.765,1.503-2.294,1.503h-31.324
		c-1.002,0-1.503-0.817-1.503-2.452v-45.404c0-1.634,0.5-2.452,1.503-2.452h31.324c1.529,0,2.294,0.606,2.294,1.819
		c0,1.002-0.765,1.503-2.294,1.503h-29.505v17.007h20.171c1.582,0,2.373,0.606,2.373,1.819c0,1.002-0.791,1.503-2.373,1.503H200.259
		z"/>
	<path class="st0" d="M291.621,466.926c0.949,0,1.608,0.581,1.978,1.74l14.001,45.088l13.922-45.246
		c0.421-1.055,0.949-1.582,1.582-1.582c0.158,0,0.368,0.039,0.633,0.119c0.263,0.078,0.526,0.25,0.791,0.514
		c0.263,0.265,0.396,0.581,0.396,0.949c0,0.316-0.079,0.712-0.237,1.187L309.498,518.5h-3.955l-13.922-44.692L277.778,518.5h-3.876
		l-14.871-48.806c-0.053-0.158-0.172-0.368-0.356-0.633c-0.186-0.264-0.277-0.447-0.277-0.554c0-0.368,0.145-0.685,0.435-0.949
		c0.289-0.264,0.566-0.436,0.831-0.514c0.263-0.08,0.475-0.119,0.633-0.119c0.685,0,1.187,0.527,1.503,1.582l14.08,45.246
		l13.922-45.088C290.17,467.507,290.777,466.926,291.621,466.926z"/>
	<path class="st0" d="M362.377,514.229c-3.296,3.322-7.502,4.983-12.616,4.983c-5.116,0-9.322-1.661-12.617-4.983
		c-3.296-3.322-4.943-7.883-4.943-13.685v-14.396c0-5.801,1.647-10.362,4.943-13.685c3.295-3.322,7.501-4.983,12.617-4.983
		c5.114,0,9.32,1.661,12.616,4.983c3.295,3.322,4.944,7.884,4.944,13.685v14.396C367.321,506.346,365.672,510.906,362.377,514.229z
		 M360.202,474.875c-2.531-2.715-6.012-4.073-10.441-4.073s-7.91,1.358-10.441,4.073c-2.531,2.717-3.797,6.475-3.797,11.272v14.396
		c0,4.799,1.266,8.557,3.797,11.272s6.012,4.073,10.441,4.073s7.91-1.357,10.441-4.073s3.797-6.474,3.797-11.272v-14.396
		C363.999,481.35,362.733,477.592,360.202,474.875z"/>
	<path class="st0" d="M382.43,516.918c0,1.424-0.581,2.136-1.74,2.136c-1.056,0-1.582-0.712-1.582-2.136v-46.274
		c0-1.634,0.5-2.452,1.503-2.452h13.922c5.431,0,9.518,0.844,12.261,2.531c2.741,1.688,4.113,4.799,4.113,9.334
		c0,3.322-0.845,5.96-2.531,7.91c-1.688,1.951-4.088,3.164-7.198,3.639c1.74,1.372,3.467,4.127,5.181,8.266
		c1.713,4.141,3.006,7.858,3.876,11.154s1.306,5.26,1.306,5.893c0,1.424-0.581,2.136-1.74,2.136c-0.475,0-0.858-0.211-1.147-0.633
		c-0.29-0.422-0.435-0.922-0.435-1.503c0-0.738-0.37-2.61-1.107-5.616c-0.739-3.006-2.005-6.565-3.797-10.679
		c-1.794-4.113-3.797-7.04-6.012-8.78H382.43V516.918z M394.532,488.521c4.746,0,8.107-0.554,10.085-1.661s2.967-3.374,2.967-6.803
		c0-3.48-0.989-5.774-2.967-6.882s-5.339-1.661-10.085-1.661H382.43v17.007H394.532z"/>
	<path class="st0" d="M424.037,518.5c-1.003,0-1.503-0.817-1.503-2.452v-46.195c0-1.476,0.554-2.215,1.661-2.215
		s1.661,0.739,1.661,2.215v45.325h25.153c1.477,0,2.215,0.581,2.215,1.74c0,1.056-0.738,1.582-2.215,1.582H424.037z"/>
	<path class="st0" d="M496.811,482.034v22.623c0,5.537-1.345,9.229-4.034,11.074c-2.689,1.847-6.803,2.769-12.34,2.769h-17.244
		c-1.002,0-1.503-0.817-1.503-2.452v-45.404c0-1.634,0.501-2.452,1.503-2.452h17.244c5.537,0,9.65,0.923,12.34,2.769
		C495.466,472.807,496.811,476.497,496.811,482.034z M493.488,504.657v-22.623c0-2.373-0.251-4.271-0.752-5.695
		s-1.357-2.491-2.57-3.204c-1.214-0.711-2.519-1.159-3.916-1.344s-3.335-0.277-5.813-0.277h-15.425v43.664h15.425
		c2.479,0,4.416-0.092,5.813-0.277c1.397-0.184,2.702-0.633,3.916-1.344c1.213-0.713,2.069-1.78,2.57-3.204
		S493.488,507.03,493.488,504.657z"/>
</g>
</g>
<g id="through">
	<g>
		<g>
			<path class="st0" d="M462.38,287.944c-1.169,2.531-2.395,5.057-3.692,7.576c-15.01,29.156-36.325,52.542-65.685,68.762
				c-34.662-60.262-68.915-119.823-103.301-179.608c38.953-22.672,77.156-44.903,115.662-67.313
				c-2.668-4.351-4.919-8.024-7.333-11.959c-38.602,22.389-76.682,44.477-115.368,66.918
				c-14.886-25.773-29.539-51.126-44.415-76.871c-4.067,2.58-7.665,4.864-11.351,7.208c1.245,2.314,2.1,3.992,3.037,5.623
				c51.739,90.108,103.477,180.206,155.233,270.305c3.886,6.762,4.706,6.917,11.851,2.934
				c36.558-20.406,64.445-51.822,80.757-88.532C472.421,291.876,467.272,290.159,462.38,287.944z"/>
		</g>
	</g>
	<g id="through1">
	<path class="st0" d="M178.229,468.191c1.476,0,2.215,0.581,2.215,1.74c0,1.056-0.739,1.582-2.215,1.582h-12.182v45.404
		c0,1.424-0.581,2.136-1.74,2.136c-1.056,0-1.582-0.712-1.582-2.136v-45.404h-12.261c-1.477,0-2.215-0.554-2.215-1.661
		s0.738-1.661,2.215-1.661H178.229z"/>
	<path class="st0" d="M192.546,516.681c0,1.582-0.554,2.373-1.661,2.373s-1.661-0.791-1.661-2.373V470.09
		c0-1.634,0.5-2.452,1.503-2.452c1.212,0,1.819,0.818,1.819,2.452v19.617h28.477V470.09c0-1.634,0.526-2.452,1.582-2.452
		c1.159,0,1.74,0.818,1.74,2.452v46.591c0,1.582-0.528,2.373-1.582,2.373c-1.161,0-1.74-0.791-1.74-2.373v-23.651h-28.477V516.681z"
		/>
	<path class="st0" d="M240.957,516.918c0,1.424-0.581,2.136-1.74,2.136c-1.056,0-1.582-0.712-1.582-2.136v-46.274
		c0-1.634,0.5-2.452,1.503-2.452h13.922c5.431,0,9.518,0.844,12.261,2.531c2.741,1.688,4.113,4.799,4.113,9.334
		c0,3.322-0.844,5.96-2.531,7.91c-1.688,1.951-4.087,3.164-7.198,3.639c1.74,1.372,3.467,4.127,5.181,8.266
		c1.713,4.141,3.006,7.858,3.876,11.154s1.305,5.26,1.305,5.893c0,1.424-0.581,2.136-1.74,2.136c-0.475,0-0.858-0.211-1.147-0.633
		c-0.291-0.422-0.435-0.922-0.435-1.503c0-0.738-0.37-2.61-1.107-5.616c-0.739-3.006-2.005-6.565-3.797-10.679
		c-1.793-4.113-3.797-7.04-6.012-8.78h-14.871V516.918z M253.059,488.521c4.746,0,8.108-0.554,10.085-1.661s2.966-3.374,2.966-6.803
		c0-3.48-0.989-5.774-2.966-6.882s-5.339-1.661-10.085-1.661h-12.103v17.007H253.059z"/>
	<path class="st0" d="M309.735,514.229c-3.297,3.322-7.503,4.983-12.617,4.983c-5.116,0-9.322-1.661-12.617-4.983
		c-3.296-3.322-4.944-7.883-4.944-13.685v-14.396c0-5.801,1.647-10.362,4.944-13.685c3.295-3.322,7.501-4.983,12.617-4.983
		c5.114,0,9.32,1.661,12.617,4.983c3.295,3.322,4.943,7.884,4.943,13.685v14.396C314.679,506.346,313.03,510.906,309.735,514.229z
		 M307.56,474.875c-2.531-2.715-6.012-4.073-10.441-4.073c-4.43,0-7.91,1.358-10.441,4.073c-2.531,2.717-3.797,6.475-3.797,11.272
		v14.396c0,4.799,1.266,8.557,3.797,11.272s6.012,4.073,10.441,4.073c4.429,0,7.91-1.357,10.441-4.073s3.797-6.474,3.797-11.272
		v-14.396C311.356,481.35,310.091,477.592,307.56,474.875z"/>
	<path class="st0" d="M357.71,469.853c0-1.476,0.58-2.215,1.74-2.215c1.055,0,1.582,0.739,1.582,2.215v30.691
		c0,5.802-1.648,10.362-4.943,13.685c-3.297,3.322-7.503,4.983-12.617,4.983c-5.115,0-9.321-1.661-12.616-4.983
		c-3.297-3.322-4.944-7.883-4.944-13.685v-30.691c0-1.476,0.554-2.215,1.661-2.215s1.661,0.739,1.661,2.215v30.691
		c0,4.799,1.266,8.557,3.797,11.272s6.012,4.073,10.441,4.073s7.91-1.357,10.441-4.073s3.797-6.474,3.797-11.272V469.853z"/>
	<path class="st0" d="M404.617,498.646h-10.521c-1.582,0-2.373-0.526-2.373-1.582c0-1.159,0.791-1.74,2.373-1.74h13.843v14.792
		c0,1.16-0.079,2.163-0.237,3.006c-0.158,0.844-0.462,1.714-0.909,2.61c-0.449,0.897-1.214,1.582-2.294,2.057
		c-1.082,0.475-2.44,0.712-4.074,0.712h-11.153c-2.742,0-5.011-0.158-6.803-0.475c-1.793-0.316-3.48-0.949-5.063-1.898
		s-2.742-2.373-3.48-4.271c-0.739-1.898-1.107-4.298-1.107-7.198v-22.623c0-2.899,0.368-5.3,1.107-7.198
		c0.738-1.898,1.898-3.322,3.48-4.271s3.27-1.582,5.063-1.898c1.792-0.316,4.061-0.475,6.803-0.475h11.153
		c1.634,0,2.992,0.237,4.074,0.712c1.08,0.475,1.845,1.16,2.294,2.057c0.447,0.897,0.751,1.768,0.909,2.61
		c0.158,0.844,0.237,1.847,0.237,3.006c0,1.635-0.554,2.452-1.661,2.452s-1.661-0.764-1.661-2.294c0-1.898-0.344-3.243-1.028-4.034
		c-0.686-0.791-1.926-1.187-3.718-1.187h-10.6c-2.531,0-4.496,0.093-5.893,0.277c-1.398,0.185-2.703,0.633-3.916,1.344
		c-1.214,0.713-2.07,1.78-2.57,3.204c-0.502,1.424-0.752,3.322-0.752,5.695v22.623c0,2.373,0.25,4.271,0.752,5.695
		c0.5,1.424,1.356,2.491,2.57,3.204c1.213,0.711,2.518,1.16,3.916,1.344c1.396,0.186,3.361,0.277,5.893,0.277h10.6
		c1.792,0,3.032-0.396,3.718-1.187c0.685-0.791,1.028-2.136,1.028-4.034V498.646z"/>
	<path class="st0" d="M423.364,516.681c0,1.582-0.554,2.373-1.661,2.373s-1.661-0.791-1.661-2.373V470.09
		c0-1.634,0.501-2.452,1.503-2.452c1.213,0,1.819,0.818,1.819,2.452v19.617h28.477V470.09c0-1.634,0.526-2.452,1.582-2.452
		c1.159,0,1.74,0.818,1.74,2.452v46.591c0,1.582-0.527,2.373-1.582,2.373c-1.16,0-1.74-0.791-1.74-2.373v-23.651h-28.477V516.681z"
		/>
</g>
</g>


<g id="design">
	<path class="st0" d="M221.023,482.034v22.623c0,5.537-1.345,9.229-4.034,11.074c-2.689,1.847-6.803,2.769-12.34,2.769h-17.244
		c-1.002,0-1.503-0.817-1.503-2.452v-45.404c0-1.634,0.5-2.452,1.503-2.452h17.244c5.537,0,9.65,0.923,12.34,2.769
		C219.678,472.807,221.023,476.497,221.023,482.034z M217.701,504.657v-22.623c0-2.373-0.251-4.271-0.751-5.695
		c-0.502-1.424-1.358-2.491-2.571-3.204c-1.214-0.711-2.519-1.159-3.916-1.344c-1.398-0.185-3.336-0.277-5.814-0.277h-15.425v43.664
		h15.425c2.478,0,4.416-0.092,5.814-0.277c1.396-0.184,2.702-0.633,3.916-1.344c1.212-0.713,2.069-1.78,2.571-3.204
		C217.45,508.929,217.701,507.03,217.701,504.657z"/>
	<path class="st0" d="M236.685,491.843v23.335h29.505c1.529,0,2.294,0.606,2.294,1.819c0,1.002-0.765,1.503-2.294,1.503h-31.324
		c-1.002,0-1.503-0.817-1.503-2.452v-45.404c0-1.634,0.5-2.452,1.503-2.452h31.324c1.529,0,2.294,0.606,2.294,1.819
		c0,1.002-0.765,1.503-2.294,1.503h-29.505v17.007h20.171c1.582,0,2.373,0.606,2.373,1.819c0,1.002-0.791,1.503-2.373,1.503H236.685
		z"/>
	<path class="st0" d="M280.586,480.215c0,2.215,0.487,4.101,1.463,5.656c0.975,1.556,2.175,2.519,3.599,2.887l17.165,4.113
		c6.486,1.635,9.729,6.118,9.729,13.447c0,3.48-0.988,6.486-2.966,9.018s-5.234,3.797-9.769,3.797h-6.012
		c-2.743,0-5.023-0.158-6.842-0.475s-3.52-0.949-5.102-1.898s-2.743-2.373-3.48-4.271c-0.739-1.898-1.107-4.298-1.107-7.198
		c0-1.476,0.605-2.215,1.819-2.215c1.054,0,1.582,0.739,1.582,2.215c0,4.536,0.949,7.423,2.848,8.661
		c1.898,1.24,5.326,1.859,10.283,1.859h7.356c2.795,0,4.838-1.001,6.131-3.006c1.291-2.004,1.938-4.165,1.938-6.486
		c0-2.689-0.541-4.904-1.621-6.645c-1.082-1.74-2.229-2.741-3.441-3.006l-17.085-4.192c-3.587-0.843-6.118-2.215-7.594-4.113
		c-1.477-1.898-2.215-4.614-2.215-8.147c0-3.48,1.001-6.459,3.006-8.938c2.003-2.479,5.272-3.718,9.809-3.718h6.012
		c2.741,0,5.009,0.158,6.802,0.475c1.792,0.316,3.48,0.937,5.063,1.859s2.741,2.32,3.48,4.191c0.738,1.873,1.107,4.26,1.107,7.159
		c0,1.477-0.581,2.215-1.74,2.215c-1.107,0-1.661-0.738-1.661-2.215c0-2.373-0.237-4.271-0.712-5.695s-1.332-2.465-2.57-3.124
		c-1.24-0.659-2.545-1.081-3.916-1.266c-1.372-0.185-3.322-0.277-5.853-0.277h-7.436c-2.796,0-4.839,0.988-6.13,2.967
		C281.231,475.824,280.586,477.948,280.586,480.215z"/>
	<path class="st0" d="M327.414,516.918c0,1.424-0.581,2.136-1.74,2.136c-1.056,0-1.582-0.712-1.582-2.136v-47.065
		c0-1.476,0.554-2.215,1.661-2.215s1.661,0.739,1.661,2.215V516.918z"/>
	<path class="st0" d="M371.553,498.646h-10.521c-1.582,0-2.373-0.526-2.373-1.582c0-1.159,0.791-1.74,2.373-1.74h13.843v14.792
		c0,1.16-0.079,2.163-0.237,3.006c-0.158,0.844-0.462,1.714-0.909,2.61c-0.449,0.897-1.214,1.582-2.294,2.057
		c-1.082,0.475-2.44,0.712-4.074,0.712h-11.153c-2.742,0-5.011-0.158-6.803-0.475c-1.793-0.316-3.48-0.949-5.063-1.898
		s-2.742-2.373-3.48-4.271c-0.739-1.898-1.107-4.298-1.107-7.198v-22.623c0-2.899,0.368-5.3,1.107-7.198
		c0.738-1.898,1.898-3.322,3.48-4.271s3.27-1.582,5.063-1.898c1.792-0.316,4.061-0.475,6.803-0.475h11.153
		c1.634,0,2.992,0.237,4.074,0.712c1.08,0.475,1.845,1.16,2.294,2.057c0.447,0.897,0.751,1.768,0.909,2.61
		c0.158,0.844,0.237,1.847,0.237,3.006c0,1.635-0.554,2.452-1.661,2.452s-1.661-0.764-1.661-2.294c0-1.898-0.344-3.243-1.028-4.034
		c-0.686-0.791-1.926-1.187-3.718-1.187h-10.6c-2.531,0-4.496,0.093-5.893,0.277c-1.398,0.185-2.703,0.633-3.916,1.344
		c-1.214,0.713-2.07,1.78-2.57,3.204c-0.502,1.424-0.752,3.322-0.752,5.695v22.623c0,2.373,0.25,4.271,0.752,5.695
		c0.5,1.424,1.356,2.491,2.57,3.204c1.213,0.711,2.518,1.16,3.916,1.344c1.396,0.186,3.361,0.277,5.893,0.277h10.6
		c1.792,0,3.032-0.396,3.718-1.187c0.685-0.791,1.028-2.136,1.028-4.034V498.646z"/>
	<path class="st0" d="M420.517,519.054c-0.633,0-1.056-0.186-1.266-0.554L390.3,474.44v42.24c0,1.582-0.554,2.373-1.661,2.373
		s-1.661-0.791-1.661-2.373V470.09c0-1.634,0.501-2.452,1.503-2.452c0.791,0,1.476,0.448,2.057,1.345l28.239,42.873V470.09
		c0-1.634,0.526-2.452,1.582-2.452c1.159,0,1.74,0.818,1.74,2.452v46.591C422.099,518.263,421.571,519.054,420.517,519.054z"/>
</g>

</svg>
